<svg xmlns="http://www.w3.org/2000/svg" viewBox="0 0 141.34 45.71"><defs><clipPath id="a"><path fill="none" d="M0 0h141.34v45.71H0z"/></clipPath></defs><g data-name="Ebene 2"><g data-name="Ebene 1"><path fill="#0078b9" d="M32.9 25.62c2.13.16 5.59-.84 5.59-3.59a3.53 3.53 0 00-3.05-3.61 3.24 3.24 0 002.44-3c0-2.71-2.54-3.75-5-3.6h-5.23v13.8m3-8.3v-3.27H33c1.25 0 1.94.52 1.94 1.63s-.69 1.64-1.94 1.64zm0 6v-3.69H33c1.4 0 2.36.24 2.36 1.84s-1 1.85-2.36 1.85zM43.44 11.74h-2.98v13.88h2.98v-7.07h.03l4.83 7.07h3.71l-5.54-7.67 5.1-6.21h-3.48l-4.62 6h-.03M56.26 11.74h-2.98v13.88h2.98v-7.07h.03l4.83 7.07h3.71l-5.54-7.67 5.1-6.21h-3.48l-4.62 6h-.03M80.47 25.62v-2.3h-6.01V11.74h-2.98v13.88M82 11.74v2.48h3.08v-2.48m-3 13.88H85V16h-2.93zM90.32 16h-2.87v9.65h2.89v-5.8c0-1.41.82-2.21 1.73-2.21 1.42 0 1.71 1.17 1.73 2.21v5.8h2.88v-6.31a6.82 6.82 0 00-.19-1.54c-.35-1.4-2.21-2.12-3.17-2.12a3.29 3.29 0 00-3 1.47v-.06M105.83 17.09a3.25 3.25 0 00-2.58-1.41c-3 0-4.51 2.52-4.51 5.11s1.32 5.12 4.15 5.12a3.22 3.22 0 003-1.65 12.4 12.4 0 00.08 1.36h2.88c0-.63-.1-1.29-.1-1.92v-12h-2.88m-4.15 9c0-1.47.23-3.19 2.07-3.19 1.56 0 2.08 1.87 2.08 3.19s-.56 3.3-2.12 3.3c-1.84 0-2.07-1.7-2.07-3.19M113.46 19.64c0-1.05.33-2 1.65-2s1.69 1 1.69 2m3 1.93a16 16 0 00-.07-1.85 5.63 5.63 0 00-.48-1.73 4.16 4.16 0 00-4.12-2.31c-2.94 0-4.63 2.23-4.63 5.14 0 3.22 1.33 5.09 4.63 5.09 2.25 0 4.12-.79 4.36-3.17h-2.59a1.59 1.59 0 01-1.79 1.26c-1.48 0-1.65-1.17-1.65-2.42z"/><path fill="#ffcb04" d="M29.89 4.65l.72-.14-.72.14M29.24 4.76h-.06.06M28.34 40.86c-.27 0-.51-.09-.64-.1a3 3 0 00.64.1M71.78 41.29a.09.09 0 000 .06c.06 0 .08 0 0-.06M38.35 3.24h-.33a1.5 1.5 0 00.33 0M80.65 45.72a1.48 1.48 0 00.28-.09c-.17 0-.29 0-.28.09"/><g clip-path="url(#a)"><path fill="#ffcb04" d="M80.76 45.07c-2.22.26.49.35.17.56.6-.08 1.87-.11 1.26-.23 1.19.36 3.52-.41 4.8-.17.06 0-.69-.13.18-.29a4.23 4.23 0 011.76.1 12.65 12.65 0 012.17-.33c.86-.18-1-.3.23-.59a14.8 14.8 0 012.88-.41c1.18.06-1.14.26-1.61.39 1.09-.14 2.18-.31 3.26-.48 1 0-.4.31-1.37.39a7.82 7.82 0 003.35-.61c.82-.06 1.25-.17 2-.18-.74.23-.64.61-1.84.84-2 .24.68-.39-1-.23l-.12.25a9.58 9.58 0 00-2.07.3c-.44 0 .09-.1.37-.16a17.82 17.82 0 00-3.56.52c1.92 0 4.73-.57 5.6-.41 1.24-.27 2.48-.54 3.71-.84 0-.1-1.34-.08-.31-.4a7.68 7.68 0 003.06 0c-.58-.21 2.25-.67 1.49-.79a1.56 1.56 0 01-1.13.07c1.39-.26.15-.31.91-.46 2.54-.38-.06.23 2.44-.14a18.22 18.22 0 01-3.15 1.15c.12.12 1.39-.26 2-.21-.85 0 .52-.38-.17-.33 2-.5 4.27-1.27 6.66-1.91-.26.55-4 1.23-3.13 1.59 1.18-.32 1.13-.54 2.09-.71a20 20 0 004.43-1.07l-.75.06a21.3 21.3 0 012.46-.67l-.17.11.68-.28h.14c.73-.35 2.73-.83 4.16-1.42-.07-.19-1.44.49-2.16.68-.2 0-1.59.35-1 0 1.81-.57 3-1.23 5-2l-.66.18a16.84 16.84 0 012.43-1.05c1.78-.59-1.16.82-.06.5-.62.45-1.89.71-2 1.05l1.22-.15a25.69 25.69 0 012.61-1l-.75.17c0-.27.75-.38 1.09-.5l-.6-.11c-1 .37-1.59 1-2.41 1.05 1.75-.82 1.23-.91 3.34-1.87.15.07-.38.23-.56.43.76-.27 1.41-.84 2.59-1.37-.61.44-1.63 1.07-.69.83.17-.18.33-.37.5-.56.55-.24.38 0 .6-.15.78-.37-.29-.13.92-.74.2-.06.62-.24.47-.09 1.36-.8.62-.45 1.77-1.38-1.1.75-1.34.43-.25-.36 1.6-1.07 2.45-2.09 3.6-2.87.16-.26.33-.51.47-.78-.08.31.13.07.41-.31l.45-.63.35-.58c.17 0-.21.68-.7 1.31s-1 1.24-.84 1.41c.95-1 .66-.45.44 0 .5-.56.51-.73.46-.82s-.18-.1-.06-.42a3.63 3.63 0 00.75-.89c.29-.45.54-.8.41-.35a3.47 3.47 0 00.52-1.3c.07-.36.16-.63.29-1.12.06.17.15.39.3.33-.05-.14.39-1.41.37-1.69-.09.24-.15-.51-.25.71a10.13 10.13 0 010-1.54c0-.67-.09-1.29-.17-1.25.14-.08 0-.72-.21-1.48a15.92 15.92 0 00-.94-2.08c-.23.21.15.6.42 1.15a7.24 7.24 0 01.4.78.8.8 0 010 .61 13.31 13.31 0 00-1.51-3.21 12.21 12.21 0 00-2.84-2.82c-1.48-1.32.14-.17 0-.58A17.19 17.19 0 01139 16.1l-.44-.62-.54-.61a11.53 11.53 0 00-1.24-1.18 11 11 0 00-1.26-.95 6.43 6.43 0 00-1.05-.63 11.75 11.75 0 01-1.57-1.31 6.14 6.14 0 00-2-1.27c.19.29.13.31.72.69-.57-.22-1.15-.61-1.73-.9-.41-.08.83.57 0 .25-.29-.18-1-.52-.77-.56l.14.05c-2-.77-1.24-1-3-1.43.1.13.51.19.9.41s-.84 0-1.65-.27c.19 0-.67-.28-1.21-.53-.3-.32 1.4.48 1.72.46l-1.5-.61.3.15c-.57-.15-1.14-.29-1.72-.42 1.18.34.47.42 0 .26-1.13-.45-2.28-.84-2.08-1a10.63 10.63 0 01-2.68-.55c1.1.39.09.21-.25.19-.54-.23-1.08-.47-1.63-.67 1.8.41-.32-.29.13-.31a8.05 8.05 0 012.56.63c-1.73-.9-2.64-.52-4.19-1.1 0-.1.19-.17.89 0-.27-.13-1.51-.2-2.57-.55.27.13.84.46-.26.29l-1.37-.56c-1.65-.39-.63.13-2-.06l.87.35c-.19.17-1.85-.4-1.94-.18.85.18 1.36.12 2.24.37.29.28-1.16-.13-1.69-.13a24.47 24.47 0 01-2.8-.81c0-.33 2.36 0 2.15-.45-1.82-.3-4.47-.63-5.64-.93-1.65-.14-1.54.12-1.33.34a7.66 7.66 0 01-1.51-.22h.78c-2-.17-3.18-.23-5.29-.47-1.2-.08-.74.15-.47.33l-1.3-.12.19.06a7.75 7.75 0 01-2.31-.11c0-.08.54-.05.49-.1a12.85 12.85 0 00-2.54-.21c0-.07.55-.22 1.46-.08.09 0 0 .06.13.09h1.55c-1.81-.03-2.85-.32-2.79-.5-1.79 0 1.43.31-.69.21C86.45.24 83.91.56 82.4 0c-1.31 0-2.85.16-4.88.11 0 .13-1.35 0-1.16.2 1.92.23 3.64-.18 5.15.16.87 0 .59-.17 1-.23a4.94 4.94 0 011.58.18c-1.79 0-.5.33-2.76.23a26.37 26.37 0 002.92.26c-.24.06 0 .15.52.25-.58.07-1.88.11-2.55.17.24-.05-.19-.12 0-.15l-2.35.08c-.72-.11-.91-.23-.52-.29-1.3-.1-3.5 0-3.5-.18-1.68 0 .53.13.67.19h-.15l1.76.02c.19.24-2-.14-2.3.09-.29.42-2.5-.22-3.74-.15L73.53.7l-1.25.06A12 12 0 0174.1.34c-1.72 0-4.18-.12-5.29 0-.43-.09-.62-.17-.43-.27a37.1 37.1 0 01-4.2 0c-1.58.15 1.6.08.45.24a11.5 11.5 0 00-1.78.08c.48-.08 2.17 0 3.32 0a1.89 1.89 0 00-1 .19h1.45a18.85 18.85 0 01-2.44.14c.42-.14.18-.14.61-.29-1.25.09-3.12.17-4.18.13-.63 0 .52-.09.86-.14-.3-.08-1.25.12-1.5 0a6.79 6.79 0 011.2-.1L57.51.5A7.26 7.26 0 0159 .36a15.7 15.7 0 00-3.2.35 9.58 9.58 0 01-2.27 0c-.57.07-.19.08-.18.12-1.68.12-1.86.3-2.86.39h.77c-1.63.08-.37.16-1.81.24.23-.1.13-.17-.12-.22a13.63 13.63 0 01-1.77.21c.39 0-1.33.21-.32.16-1.43.22-2.1.23-3.14.43.67-.07-1.23.23-.65.19-1.38.18-2.34.26-2 .15a6.84 6.84 0 001.18-.18c-.84.11-1.67.25-2.51.38-.63.07-1.43.19-1.54.16-.79.2-2.37.39-3 .57A16.18 16.18 0 0137.47 3l-.38.07h.2l-1.07.25c1-.15.17-.07 1.65-.32 1.28-.14-2.87.58-1.54.4 1.09-.16.89-.19 1.79-.36h-.24l2-.36c.1 0-.51.13-.51.13 2.47-.36 2.86-.37 5.53-.67-.19 0-.73-.05.46-.21.85-.13 1-.07 1.67-.14a10.71 10.71 0 01-1.35.21l.06.08c-2 .32-.93.27-3.64.62-.1.06-2.1.3-3.55.51l.72-.06c-1.51.27-.3 0-2.24.31-.82 0-2.3.24-1.22 0-1.37.22-1.84.33-3.07.56-.76.12.37-.1.22-.11-.89.18-2 .43-1.35.3l-1.7.35.8-.17c-.66.13-1.93.42-2.29.51l.74-.17-2.05.47 2.2-.49-.84.19c.89-.19 1.79-.36 2.16-.42l-1.39.27 2.48-.48c.1 0 2.64-.48 1.76-.28.13 0 1.13-.21 1.65-.28 0 0-1.36.25-1.93.37-2.64.45 0 0-.57.06s-1.35.23-2 .36c.2 0-.8.17.51-.08L28.2 5l.8-.15c-.23.05-1.5.3.15 0-.47.09.8-.16-.05 0a16.14 16.14 0 011.75-.29l3-.5c.2 0-.56.09-.89.15.77-.13 1.54-.25 2.32-.36l-.67.08c1.71-.24 2.79-.45 4.16-.66-.18.08-1.32.24-2.22.38.87-.06.57-.1 2-.29h.16l1.13-.19c.33 0 .15 0 0 0 1.94-.29-.06-.09 2.55-.42-1.58.14-1.33.21-2.66.36-.77.05 1.51-.27 1.89-.35 1.29-.13 1.45 0 3.06-.27-1.14.15 0 .08-1.66.25-.9.13.48 0 .68 0 .42 0-.3 0 .9-.16h-.05l1.94-.27c1.82-.12 4.09-.46 5.35-.42l-.3-.09L55 1.59a11.54 11.54 0 01-1.76.21c2.06-.11 3.87-.26 5.25-.42-1-.06-1.15 0-2.12 0a31.52 31.52 0 013.31-.13c.06.13-.52.13-.08.25.71-.12 1.91-.14 2.72-.24.44.13-.32.25-2.09.32-1.35-.08-2.82.17-3.93.12h.7c-1.34.09-2.15.1-3.29.22l-.5.08h.62c-.42.09-1.71.24-2.09.28a16 16 0 002.94-.45c1.72-.08 2.41.12 3.55 0 .1.06 1.06.1.29.17a10.5 10.5 0 00-1.71.1h2.15a16.75 16.75 0 012.51-.38A33.27 33.27 0 0165 1.61c-1.15 0-2.3.15-2 .24.66-.15 2.25.1 1.9-.09a18.55 18.55 0 013.75.24c-1.26 0-2.48-.08-3.55 0 .29 0 .58.05.41.08L63.93 2a21 21 0 002.49.13c-.1 0-.29-.05-.15-.05h1.24v.16c1.15-.06 3.35.2 5.44.16h-.19c1.66.1 1.81-.22 3.62-.19-.52.06-.28.14-.19.23a11.77 11.77 0 012.28.24c-1-.17.71-.15 0-.25 0-.18 1.81-.1 2.76 0 .56.28-2.95-.06-1.53.28 1 .08 1.19 0 .52-.13a32.42 32.42 0 013.84.51A20.75 20.75 0 0087 3a7.7 7.7 0 01-1.78 0l1.06-.09c1.37.1 2.45.4 3.39.52h-1c-.38.05-1.66-.14-1.52 0 .91-.08 1.61.17 2.8.17 2.09.08 3.55.73 4.91.53-.38-.05-1.12-.31-.87-.35.46.16 1.73.3 1.67.41h-.43c1.18.19 1.88.32 2.31.35s0-.26.88-.21c2.06.41-.88.21.51.55l1.94.17.4.21c2.82.63 5.08.61 8.08 1.28 0 .24-2.19-.14-2.93-.27.89.4 2.28.4 3.48.84s2 .32 1.91.14c1.43.27 1 .39 1.14.48.53-.16 2.27.43 3.41.7v.17l1.8.34c-.44-.15 0-.17 0-.26l.44.15c-1.59-.95-4-.87-5.62-1.8.57.09-.15-.18.41-.1s.54.19.58.25c.3 0 1.06.05.1-.21.12-.29 2 .28 3.38.58 1 .52-1.18 0-1.77 0a6.78 6.78 0 011.66.4l-.24.18c1.84.41.55-.06 1-.17s1.62.54 2.12.67l-.56-.12c1.37.55 1.75.43 3 .89l.51.41c-1.47-.81-2-.37-2.86-.79 2.19 1-.66.32-1.43.3a8.6 8.6 0 012.35.94c1.51.19 2.87 1.2 4.32 1.42.69.36-.71-.11 0 .23 1.39.63 2.81 1.32 4.27 2 .69.43.51.46.64.68 1.59 1.09 2.71 1.77 3.72 2.58a7.1 7.1 0 012.56 3.34l-.33-.39a4.87 4.87 0 01.27.86 2.55 2.55 0 00.25.59 3.1 3.1 0 00-.15.76v.47c0 .17-.06.34-.08.51a2.18 2.18 0 01-.15.54 3 3 0 01-.21.52 2.16 2.16 0 01-.71.78 9.55 9.55 0 00-.95 1.33 4.64 4.64 0 01-.89 1.19c-.08-.09.11-.51-.47-.09a28.39 28.39 0 01-5.87 3.79 63.42 63.42 0 01-7.09 2.95 2.22 2.22 0 01.41-.24c-3.4 1.13-6.75 2.49-9.73 3-.54.2-2.18.65-1.63.73.7-.12.85.09.83.25-2.6.79-1.37 0-3.13.37-.63-.26 1.07-.46 1-.79l-2.51.74c-1.46.14-2.87.62-4.17.64.57 0 .14-.3 1.1-.31-.14 0 0 .05-.18.09 2.16-.35 1.14-.38 3-.81a45 45 0 01-5.44 1c.36.2-1.21.29-1.61.5h-.1c0 .11-.91.32-1.19.39l-.42-.26c-.65.13.21.14-.44.26-.93.2-4.29.63-4.56.31a24.45 24.45 0 01-2.63.43c.09-.09.37-.15.41-.19-2.51.18-5.59.52-8 .46-1.94.21-3.6.31-4.83.57.53 0 2 0 1.11.18a14.16 14.16 0 01-2.14.21c.18-.16-2.06-.09-.44-.25-.42-.31-3.49.16-3.47-.19-.38.11-2.68.08-3.54.25-.19-.14 1.24-.1 1.24-.2l-1 .05v-.1a20.84 20.84 0 00-3.57.36h-.82l1-.25c-1.28 0-2 .25-3.39.25l-.14-.08-.87.06c.15 0 .2 0 .11-.07-.82.22-2.68 0-3.45.21a4.58 4.58 0 00-1.81-.23l.16-.28c1.91.06.7.24 2.71.23-1.46-.44-5.6-.61-8.35-.82-2.25 0-5.87-.66-6.86-.37l.26-.14-3.72-.6c-3.17-.36-6.38-1-8.81-1.29l-.62-.25c-2.57-.06-8.38-1.75-10.08-1.89-1.34-.51.46 0 .62 0A23.35 23.35 0 0117.14 35c0-.06 1.41.42.79.17s-1.07-.23-1.83-.65c.32.23-1.39-.22-2.57-.72l.3.15c.14.15-.73-.24-1.22-.43a.84.84 0 01.19 0 37.23 37.23 0 01-4.6-2.22 22.67 22.67 0 01-4.31-3.09 10.27 10.27 0 01-2.95-4.3 5.79 5.79 0 01-.26-1.29L.62 22v-.65a7.17 7.17 0 01.73-2.48A6.75 6.75 0 001 20a8.3 8.3 0 011.52-2.89l-.09.12c.28-.37.53-.63.73-.86a6.57 6.57 0 01.52-.59 8.24 8.24 0 011.18-1.08l-.21.19a30.38 30.38 0 014.75-3.27c1.52-.82 1.36-.72 2.43-1.25.9-.45 1.33-.65 1.38-.67l-.44.2 1.62-.74-2.08.9c-1.35.63-1.33.58-2.83 1.34a37.42 37.42 0 00-3.37 2c.64-.51-1.49 1.06-.43.23A14.18 14.18 0 004.05 15c-.67.6-1.33 1.31-1.74 1.76a2.17 2.17 0 01.26-.35 14.28 14.28 0 00-1.48 2h.09c-.2.46-.33.56-.49 1 .14-.33.51-1 .36-.6a10.5 10.5 0 00-.57 1.49 2.43 2.43 0 01.18-.71 5 5 0 00-.23.67 6.75 6.75 0 01-.2.76c.05-.26.1-.53.14-.81s.16-.53.21-.75c-.34.87-.29.92-.3.83s0-.28-.09.16c.08-.11 0 .28-.09.84a7.71 7.71 0 000 1.8c0 .11-.06-.72-.11-1a5.5 5.5 0 00.41 2.5 11.34 11.34 0 001.42 2.51 4.08 4.08 0 01-.32-.38 12.52 12.52 0 001.71 2.09c.8.76 0 .28 1.31 1.38-.15-.21.23.11.67.47a3.21 3.21 0 001 .66c.34.27.67.56 1 .8 1 .51-.12-.37 1.78.72 1.72 1-.3.16.68.81l.48.15.84.51-.13-.06a11 11 0 011.47.77c-.1 0-.68-.26-.78-.27.45.18 1.31.62 2.18 1.07a8.89 8.89 0 002.31.86c.52.25 1.63.67 1.45.71.53.07 2.44.91 3.2 1.07a3.25 3.25 0 001.14.45c-.73-.29-.25-.19.28-.11.62.32 2.52.74 2.76 1 1.05.2.71-.05 1-.12.63.29 2.76.81 2.33.93-.56-.17-1.82-.55-1.62-.34 1.07.36.49.06 1.38.28-.07 0 .58.28.4.3.53.1 1.27.28 2 .5-1.16-.38.79 0 .1-.24L29.29 41c-1.38-.32-.26-.19-.77-.37 2.42.53 2 .19 4.29.56.42.13 1.16.35 1.4.4-.76-.13-.65.11-.23.23a17.85 17.85 0 013.31.8c-.9-.22-.4-.28 0-.27 2.21.24.84.23 1.79.5 3.39.52 5.52 1.15 8.28 1.31L46 43.8l-.45.16c-1-.31.24-.44.83-.53.13.09 1.82.25 1.14.29l1.64.09c-.23-.12-1.29-.2-.52-.21.53.13 2.21.33 1.14.36.86.1 2 .13 1.8 0 1.39.12-.17.27-.8.3 1.1.12.94.3.6.33l1.55.11c-.34 0-.35.13-.69.16a22 22 0 012.61.25l.4-.16c2.79.36 2.5.38 5.12.55l-.37-.19c2-.17 1.44.33 4.11.32 1.51 0 2.48-.07 2.29-.33a3 3 0 011.45.18 11.59 11.59 0 013.2-.21c-.73.08-1.31.14-2 .16.2.26 2.33.08 3.44.2.78-.11 3.29-.46 4.69-.71-.64-.19-.41-.49.84-.74-.19.17 1.69.1 2.56.18-.42.18 2 .28.13.44a4.3 4.3 0 00-1.51-.17A15.1 15.1 0 0082 45a4 4 0 01-1.35.25c.34-.09.14-.13.09-.19"/></g><path fill="#ffcb04" d="M38.35 3.24h.2-.24c.08 0 .08 0 0 0M118.26 39.65c.09 0 .25-.13.24-.16a.71.71 0 00-.24.16M141.06 24.53h0M36.63 3.17l.46-.09-.46.09"/><path fill="#5e5d5e" d="M27.66 29.35h1.86A1.75 1.75 0 0131 30a2.52 2.52 0 01.46 1.57 3.25 3.25 0 01-.27 1.43 1.71 1.71 0 01-1.67 1h-1.86m1.74-.54a1.56 1.56 0 00.52-.07 1.14 1.14 0 00.59-.48 1.84 1.84 0 00.26-.72 2.91 2.91 0 00.05-.49 2.35 2.35 0 00-.34-1.34 1.25 1.25 0 00-1.09-.48H28.3v3.58zM33.48 29.35h.64v4.66h-.64zM36.21 29.35h3.38v.58h-2.77v1.41h2.56v.54h-2.56v1.58h2.82v.56h-3.43M47.41 29.49a1.66 1.66 0 01.83 1.28h-.62a1.16 1.16 0 00-.46-.75 1.63 1.63 0 00-.89-.23 1.37 1.37 0 00-1.07.49 2.08 2.08 0 00-.43 1.44 2.35 2.35 0 00.36 1.36 1.3 1.3 0 001.16.52 1.45 1.45 0 001-.37 1.52 1.52 0 00.41-1.18h-1.43v-.53h2V34h-.41l-.15-.6a2.32 2.32 0 01-.56.49 2.13 2.13 0 01-1 .23 2 2 0 01-1.4-.54 2.57 2.57 0 01-.64-1.84 2.7 2.7 0 01.63-1.87 2 2 0 011.54-.66 2.34 2.34 0 011.12.26M51.05 29.35v2.89a1.63 1.63 0 00.19.84 1 1 0 001 .51A1.12 1.12 0 0053.3 33a1.67 1.67 0 00.16-.8v-2.85h.64V32a3 3 0 01-.24 1.33 2 2 0 01-3.22 0 3.11 3.11 0 01-.23-1.33v-2.65M59.46 29.35v.56h-1.57v4.11h-.64v-4.11h-1.57v-.56M61.11 29.35h3.38v.58h-2.77v1.41h2.56v.54h-2.56v1.58h2.82v.56h-3.43M69.51 29.35l.88 3.79 1.06-3.79h.68l1.06 3.8.87-3.8h.7l-1.23 4.67h-.66l-1.08-3.87-1.08 3.87h-.66l-1.22-4.67M77.47 29.35h.71L79.87 34h-.69l-.49-1.4h-1.82l-.51 1.4h-.65m2.81-1.91l-.72-2.06-.75 2.06zM81.47 29.35h.63v1.93h2.4v-1.93h.64v4.67h-.64v-2.18h-2.4v2.18h-.63M87.15 29.35h.63v4.11h2.34v.56h-2.97"/></g></g></svg>